# xmcd
#
# Track frame offsets: 
#        150
#        19786
#        40602
#        53342
#        70582
#        84713
#        102897
#        121499
#        138343
#        154914
#        170662
#        187977
#        205561
#        223571
#        239620
#        255101
#        274020
#        288742
#        306406
#        323982
#
# Disc length: 4512 seconds
#
# Revision: 0
# Processed by: cddbd v1.5.2PL0 Copyright (c) Steve Scherf et al.
# Submitted via: ExactAudioCopy v0.99pb4
#
DISCID=18119e14
DTITLE=Various Artist - Essential R&B
DYEAR=2008
DGENRE=R&B
TTITLE0=Dizzee Rascal Feat. Calvin Harris and Chrome - Dance Wiv Me (Clu
TTITLE0=b Mix)
TTITLE1=Chris Brown - Forever
TTITLE2=Wiley - Wearing My Rolex 
TTITLE3=Flo Rida - Low
TTITLE4=Jay Sean - Ride It 
TTITLE5=Alicia Keys - No One
TTITLE6=R. Kelly - Bump N' Grind
TTITLE7=Eamon - F**k It (I Don't Want You Back) 
TTITLE8=Natasha Bedingfield Feat. Sean Kingston - Love Like This
TTITLE9=Lil Mama Feat. Chris Brown and T-Pain - Shawty Get Loose
TTITLE10=Ciara - Get Up
TTITLE11=Missy Elliott - Get Ur Freak On 
TTITLE12=Ol' Dirty Bastard and Kelis - Got Your Money
TTITLE13=House Of Pain - Jump Around 
TTITLE14=Kid Sister - Pro Nails
TTITLE15=A Tribe Called Quest - Can I Kick It?
TTITLE16=Bow Wow Feat. Ciara - Like You 
TTITLE17=OutKast - Ms. Jackson
TTITLE18=Gym Class Heroes - Clothes Off!!
TTITLE19=Kelly Rowland - Work (Freemasons Radio Edit)
EXTD=
EXTT0=
EXTT1=
EXTT2=
EXTT3=
EXTT4=
EXTT5=
EXTT6=
EXTT7=
EXTT8=
EXTT9=
EXTT10=
EXTT11=
EXTT12=
EXTT13=
EXTT14=
EXTT15=
EXTT16=
EXTT17=
EXTT18=
EXTT19=
PLAYORDER=
